<?xml version="1.0" encoding="utf-8" standalone="no"?>
<!DOCTYPE svg PUBLIC "-//W3C//DTD SVG 1.1//EN"
  "http://www.w3.org/Graphics/SVG/1.1/DTD/svg11.dtd">
<!-- Created with matplotlib (http://matplotlib.org/) -->
<svg height="423pt" version="1.1" viewBox="0 0 330 423" width="330pt" xmlns="http://www.w3.org/2000/svg" xmlns:xlink="http://www.w3.org/1999/xlink">
 <defs>
  <style type="text/css">
*{stroke-linecap:butt;stroke-linejoin:round;}
  </style>
 </defs>
 <g id="figure_1">
  <g id="patch_1">
   <path d="
M0 423.517
L330.834 423.517
L330.834 0
L0 0
z
" style="fill:#ffffff;"/>
  </g>
  <g id="axes_1">
   <g id="patch_2">
    <path d="
M30.6844 402.639
L323.634 402.639
L323.634 12.0391
L30.6844 12.0391
z
" style="fill:#eeeeee;"/>
   </g>
   <g id="patch_3">
    <path clip-path="url(#pa271563a9e)" d="
M50.6657 344.21
L50.5279 343.826
L50.0527 343.755
L49.5786 343.966
L49.1033 344.001
L48.6813 343.79
L47.7851 343.544
L46.7304 341.962
L47.0201 339.994
L45.8603 337.884
L46.0187 337.005
L46.7044 336.056
L46.7565 335.318
L46.1239 334.299
L44.5941 333.033
L43.4071 330.325
L43.2498 328.427
L43.3018 327.407
L43.8823 326.915
L44.6201 326.986
L45.359 327.442
L45.5695 329.025
L45.4642 331.345
L46.0447 332.786
L46.8878 333.313
L47.6798 333.067
L48.7344 331.697
L49.4202 328.919
L49.5254 326.458
L48.2592 324.314
L48.4437 323.188
L49.9203 321.817
L50.0256 320.833
L49.7619 319.216
L48.8126 317.668
L46.2292 314.013
L45.9916 312.888
L46.2031 312.326
L46.8889 311.974
L47.363 311.833
L47.4682 311.939
L47.363 312.326
L47.4162 312.677
L47.7851 312.782
L48.4708 312.606
L49.3149 311.587
L49.9995 309.443
L50.58 308.528
L51.5153 307.758
L52.3844 307.266
L53.222 306.538
L53.6625 305.77
L53.9837 302.915
L54.2202 301.809
L55.1338 300.613
L55.5743 299.733
L55.6079 298.718
L55.7273 297.803
L56.5063 295.975
L56.7765 293.425
L57.2842 292.928
L58.1305 292.432
L58.7229 292.059
L59.0951 290.818
L59.3316 288.968
L59.0615 287.591
L59.1114 286.79
L60.1617 283.991
L60.4665 282.705
L60.2116 281.565
L60.0759 279.693
L60.6857 278.519
L60.8723 275.867
L60.8723 274.265
L61.4137 272.685
L62.2264 272.143
L63.2756 272.053
L63.8517 272.21
L64.3443 272.239
L64.7653 272.053
L65.1038 271.331
L64.8847 269.514
L65.1212 267.664
L64.8847 266.129
L65.2405 262.281
L65.7483 261.694
L67.1371 260.836
L67.4073 260.204
L67.4073 259.324
L66.9331 258.602
L66.5447 257.959
L66.8149 257.191
L67.8988 256.446
L69.4558 256.108
L70.2001 255.679
L70.2684 255.363
L69.8616 254.663
L69.8963 254.461
L72.7737 252.722
L73.1632 252.305
L73.6037 250.387
L73.4681 248.627
L73.6037 247.837
L74.1289 247.261
L75.6522 246.516
L77.7517 245.072
L78.7336 243.311
L80.054 242.251
L80.832 241.957
L81.3061 242.003
L81.6447 242.408
L82.1351 242.42
L83.3199 241.81
L84.5047 240.795
L84.6067 240.05
L84.4711 238.109
L84.4711 237.139
L84.7597 236.879
L86.4859 236.225
L87.163 235.457
L87.6707 233.742
L88.0776 233.223
L89.1605 232.614
L89.5673 232.185
L89.7865 231.316
L90.227 230.571
L91.7156 229.488
L92.1898 228.721
L92.2234 227.953
L92.4274 227.48
L93.2737 226.69
L93.4082 225.967
L92.9352 223.767
L93.0024 221.487
L93.8151 219.66
L93.8325 218.949
L93.1218 216.917
L93.1554 215.947
L93.8661 213.667
L93.8498 212.979
L93.0708 210.586
L93.0024 209.548
L93.4429 208.172
L93.7652 207.438
L93.5287 206.603
L91.8697 204.752
L90.4136 203.85
L90.0751 203.421
L90.0415 202.901
L90.38 202.585
L91.3456 201.807
L91.1427 200.815
L90.3974 199.731
L87.0794 197.767
L86.5044 197.203
L86.3514 196.65
L86.8592 194.326
L86.7919 193.603
L85.81 192.339
L84.9973 191.821
L84.5232 191.617
L83.9644 190.906
L83.1517 190.049
L81.764 189.484
L81.087 189.033
L80.0041 187.747
L79.8349 186.934
L79.9021 186.415
L80.5792 185.761
L80.9014 185.14
L80.6649 184.035
L79.3781 181.123
L78.8009 180.353
L78.6989 180.139
L78.8009 179.947
L79.3944 179.306
L79.8685 178.494
L79.8685 177.771
L79.4964 176.778
L77.3969 174.432
L76.8392 173.743
L76.6135 172.409
L76.6027 172.344
L76.5007 170.448
L76.1112 168.383
L74.7571 166.511
L74.08 165.405
L74.1137 164.705
L75.1976 162.425
L75.7054 161.929
L76.2131 161.929
L76.6862 162.155
L76.7546 162.561
L75.8063 164.615
L75.8399 165.224
L76.2804 165.427
L76.8218 165.292
L77.2623 164.66
L77.4989 163.87
L78.2953 163.114
L78.8703 162.211
L79.2772 161.421
L79.581 160.067
L80.2927 159.412
L81.7814 158.713
L82.7123 158.07
L83.0172 157.145
L82.9152 156.106
L81.4266 153.736
L79.9879 152.958
L79.3781 152.529
L79.4117 152.123
L79.7502 151.965
L80.2917 152.01
L80.8656 152.388
L81.4244 152.399
L81.7466 152.196
L81.7814 151.739
L79.3955 147.778
L78.1434 145.431
L77.0421 141.335
L76.5007 138.334
L75.3321 134.734
L73.3346 130.807
L72.5057 128.674
L71.693 126.869
L71.591 125.921
L71.9632 122.852
L71.744 121.983
L70.9986 120.81
L68.2905 117.65
L66.7498 115.946
L64.9899 114.817
L64.0416 114.547
L63.6011 114.185
L61.9432 111.612
L59.6051 107.336
L58.6242 106.23
L56.6267 104.537
L56.0853 103.838
L56.0853 103.228
L56.4575 102.732
L57.1681 102.438
L57.6759 102.438
L58.1501 102.664
L58.7935 102.935
L60.0456 103.003
L61.264 103.026
L61.9411 102.777
L62.3479 102.349
L62.821 101.897
L64.2434 101.288
L66.1389 100.633
L67.4756 100.487
L69.5751 100.622
L71.0985 100.554
L72.114 100.058
L72.6891 99.5841
L72.9994 98.9628
L78.2909 98.1382
L87.4733 97.1964
L94.184 97.4655
L111.943 96.7928
L122.488 97.5327
L148.725 96.7255
L149.633 97.1291
L150.156 97.6593
L151.857 98.5266
L151.337 98.8506
L151.197 99.2709
L151.425 99.6333
L151.871 100.171
L151.591 100.896
L151.854 101.573
L153.975 101.925
L154.676 102.345
L154.833 102.906
L154.519 105.01
L154.939 107.183
L153.799 108.843
L153.782 109.228
L154.5 110.036
L154.764 112.396
L155.911 114.815
L157.138 115.879
L157.419 117.573
L157.051 118.287
L157.296 119.408
L158.751 120.39
L159.347 124.224
L160.67 126.281
L164.684 128.863
L164.753 131.236
L166.156 132.486
L166.024 134.181
L166.725 135.689
L167.724 137.336
L168.163 139.335
L169.354 140.34
L169.6 141.474
L171.107 142.724
L171.156 143.064
L174.332 144.395
L178.857 144.779
L182.168 144.868
L185.971 144.627
L187.68 144.065
L191.495 143.335
L193.83 143.271
L194.361 142.211
L194.939 141.376
L196.769 140.991
L198.598 141.89
L199.947 143.239
L203.702 143.945
L208.324 143.945
L210.828 143.559
L212.946 142.147
L213.236 140.092
L213.621 136.304
L214.295 133.672
L214.799 132.708
L216.484 131.617
L217.11 130.429
L217.351 128.535
L216.822 125.421
L216.63 124.362
L216.533 122.066
L216.725 120.686
L217.448 120.269
L220.336 119.691
L223.466 119.947
L227.992 120.076
L230.784 120.076
L232.133 119.338
L232.999 118.31
L234.733 117.957
L237.958 118.31
L239.475 118.808
L239.475 119.29
L238.513 122.5
L238.224 125.389
L238.705 126.224
L240.727 126.384
L245.735 126.449
L251.102 126.24
L253.269 126.368
L258.999 126.304
L260.058 126.304
L265.334 127.798
L265.4 127.877
L266.872 131.03
L267.051 133.193
L266.308 134.88
L264.645 138.821
L263.174 141.021
L263.009 141.901
L263.93 144.468
L265.305 145.715
L267.572 148.08
L267.902 148.868
L268.411 152.021
L268.013 155.302
L267.559 159.061
L267.106 160.142
L266.364 160.748
L265.593 161.939
L265.36 165.294
L265.704 166.852
L266.694 168.282
L266.679 168.686
L265.937 169.473
L264.975 171.16
L264.631 172.003
L264.549 172.608
L265.181 173.617
L266.199 175.083
L266.57 176.275
L266.652 178.878
L267.353 180.124
L268.26 180.858
L269.717 181.591
L271.312 182.856
L272.426 183.975
L273.635 186.156
L274.116 188.906
L274.474 190.116
L275.78 192.757
L276.193 193.801
L275.63 197.486
L275.243 198.48
L274.728 199.159
L274.792 199.803
L274.981 200.754
L273.947 203.58
L273.442 207.516
L274.25 211.958
L275.057 212.362
L275.712 212.227
L277.452 210.881
L279.168 209.973
L281.641 209.401
L282.699 209.501
L284.314 210.175
L285.121 210.444
L287.467 209.602
L289.334 209.602
L293.017 210.275
L294.429 210.175
L298.088 208.694
L301.317 207.113
L303.638 206.44
L305.151 206.406
L307.17 207.011
L309.415 208.156
L310.474 207.954
L312.342 206.978
L313.703 206.844
L314.511 207.348
L314.864 208.256
L314.763 209.703
L314.263 210.426
L314.236 210.466
L314.295 212.257
L314.256 215.101
L314.946 216.76
L314.669 218.788
L313.584 221.369
L311.609 223.08
L311.728 224.029
L312.755 224.844
L313.189 225.898
L312.932 226.82
L310.958 227.874
L310.523 228.163
L310.543 231.192
L310.859 233.352
L311.372 234.063
L312.951 234.852
L314.808 235.932
L315.182 236.907
L314.431 238.17
L311.589 240.462
L310.661 242.016
L310.07 245.071
L310.366 246.387
L310.997 247.151
L312.617 248.389
L314.118 249.232
L314.315 249.785
L313.959 250.312
L313.13 250.68
L308.135 250.838
L298.48 251.312
L289.18 250.996
L279.169 250.996
L269.967 251.049
L269.724 251.287
L269.749 253.708
L269.77 259.475
L269.551 265.243
L269.77 270.905
L269.672 276.567
L269.612 282.229
L269.434 287.865
L269.454 293.632
L269.315 299.373
L269.374 304.957
L269.433 310.75
L269.239 314.477
L269.326 316.111
L269.166 318.705
L267.838 319.814
L269.125 321.059
L271.592 324.046
L272.806 325.704
L273.984 328.361
L276.071 330.74
L279.886 334.246
L286.396 339.395
L288.56 341.901
L290.61 344.077
L293.324 345.988
L296.209 348.012
L298.296 349.343
L297.875 351.452
L296.21 352.15
L295.125 352.382
L282.015 355.178
L266.577 358.773
L260.902 360.312
L257.563 361.686
L256.377 361.356
L253.599 359.747
L252.159 359.126
L250.218 358.66
L248.385 358.418
L245.643 358.457
L243.884 358.971
L242.305 360.027
L240.095 360.027
L238.488 359.582
L236.873 358.825
L233.884 358.69
L231.354 357.817
L230.67 357.643
L230.03 357.633
L229.339 357.788
L227.303 358.447
L226.344 358.709
L225.543 358.777
L224.169 358.66
L222.903 358.292
L222.119 358.147
L219.377 358.254
L218.446 358.642
L217.994 358.719
L217.501 358.661
L212.897 357.536
L209.733 357.051
L205.916 357.071
L204.127 356.693
L201.364 355.762
L199.539 354.87
L196.884 352.33
L195.487 350.692
L193.509 347.715
L193.406 347.63
L187.107 347.232
L180.074 346.57
L179.574 346.54
L175.467 346.645
L160.657 346.751
L143.714 346.593
L126.062 346.804
L109.357 346.805
L106.405 346.805
L102.167 346.045
L101.546 346.313
L99.137 347.008
L97.6983 347.136
L96.2596 346.944
L92.3384 344.993
L89.7008 342.722
L87.9496 340.612
L87.3865 340.213
L86.8581 340.004
L85.5626 339.881
L84.8921 339.093
L84.5329 337.415
L84.1488 336.967
L82.926 336.247
L82.1101 336.135
L81.5351 336.327
L80.4555 337.127
L79.7481 337.094
L75.5036 334.999
L74.2808 334.76
L72.4818 334.648
L71.4391 334.776
L70.5277 335.112
L69.8995 335.768
L69.8084 335.863
L64.7599 342.851
L64.0883 343.234
L63.3928 343.569
L62.6496 343.538
L60.3949 342.882
L59.5324 342.77
L58.6687 342.962
L57.6976 342.994
L56.3544 342.691
L55.2271 342.611
L54.3645 342.851
L52.3844 343.547
L50.6657 344.21" style="fill:#cccccc;stroke:#000000;stroke-width:0.5;"/>
   </g>
   <g id="patch_4">
    <path clip-path="url(#pa271563a9e)" d="
M54.4611 77.1376
L55.2065 76.4888
L55.7804 75.5137
L56.72 75.0617
L57.6076 74.8179
L58.8597 75.4096
L60.217 75.3749
L60.6868 74.8526
L60.5306 70.7108
L60.7389 69.6316
L61.8347 69.0746
L63.9743 68.7267
L66.0619 67.4392
L66.689 65.4898
L67.4453 64.7592
L68.3317 64.6543
L68.8536 65.0023
L69.5849 66.8127
L72.5079 69.3184
L74.96 70.9198
L75.5415 70.8844
L69.8453 74.5409
L65.565 77.2555
L62.0159 79.8313
L62.0159 80.5966
L63.8951 82.198
L63.5816 90.6206
L63.3201 92.8477
L61.8586 94.1012
L60.2929 94.7276
L58.2054 94.7971
L56.5757 94.7132
L55.7088 94.6683
L55.5081 94.3132
L55.3388 93.7265
L55.7793 91.1536
L56.2871 90.8151
L56.7949 90.7927
L57.6076 91.2441
L58.047 91.2441
L58.4029 90.9395
L58.3682 90.0368
L56.1851 85.8277
L54.8647 83.2548
L55.0339 82.9388
L55.3725 82.8483
L55.9898 82.8642
L56.2611 82.695
L56.2188 82.2841
L54.7638 80.8396
L53.8155 79.6888
L53.9175 79.1926
L54.3905 78.9438
L54.8983 78.9669
L55.6101 79.5984
L56.2188 79.7792
L57.0987 79.7792
L58.4528 79.3727
L58.9269 78.8989
L58.9269 78.4924
L58.4191 77.7705
L58.0719 77.5948
L57.7757 77.6353
L57.0314 78.3123
L56.4217 78.47
L55.9486 78.3796
L54.4611 77.1376" style="fill:#cccccc;stroke:#000000;stroke-width:0.5;"/>
   </g>
   <g id="matplotlib.axis_1">
    <g id="xtick_1">
     <g id="line2d_1">
      <path clip-path="url(#pa271563a9e)" d="
M52.3844 402.639
L52.3844 12.0391" style="fill:none;stroke:#000000;stroke-dasharray:1.000000,3.000000;stroke-dashoffset:0.0;stroke-width:0.5;"/>
     </g>
     <g id="line2d_2">
      <defs>
       <path d="
M0 0
L0 -4" id="m93b0483c22" style="stroke:#000000;stroke-width:0.5;"/>
      </defs>
      <g>
       <use style="stroke:#000000;stroke-width:0.5;" x="52.384375" xlink:href="#m93b0483c22" y="402.6390625"/>
      </g>
     </g>
     <g id="line2d_3">
      <defs>
       <path d="
M0 0
L0 4" id="m741efc42ff" style="stroke:#000000;stroke-width:0.5;"/>
      </defs>
      <g>
       <use style="stroke:#000000;stroke-width:0.5;" x="52.384375" xlink:href="#m741efc42ff" y="12.0390625"/>
      </g>
     </g>
     <g id="text_1">
      <!-- 12 -->
      <defs>
       <path d="
M19.1875 8.29688
L53.6094 8.29688
L53.6094 0
L7.32812 0
L7.32812 8.29688
Q12.9375 14.1094 22.625 23.8906
Q32.3281 33.6875 34.8125 36.5312
Q39.5469 41.8438 41.4219 45.5312
Q43.3125 49.2188 43.3125 52.7812
Q43.3125 58.5938 39.2344 62.25
Q35.1562 65.9219 28.6094 65.9219
Q23.9688 65.9219 18.8125 64.3125
Q13.6719 62.7031 7.8125 59.4219
L7.8125 69.3906
Q13.7656 71.7812 18.9375 73
Q24.125 74.2188 28.4219 74.2188
Q39.75 74.2188 46.4844 68.5469
Q53.2188 62.8906 53.2188 53.4219
Q53.2188 48.9219 51.5312 44.8906
Q49.8594 40.875 45.4062 35.4062
Q44.1875 33.9844 37.6406 27.2188
Q31.1094 20.4531 19.1875 8.29688" id="BitstreamVeraSans-Roman-32"/>
       <path d="
M12.4062 8.29688
L28.5156 8.29688
L28.5156 63.9219
L10.9844 60.4062
L10.9844 69.3906
L28.4219 72.9062
L38.2812 72.9062
L38.2812 8.29688
L54.3906 8.29688
L54.3906 0
L12.4062 0
z
" id="BitstreamVeraSans-Roman-31"/>
      </defs>
      <g transform="translate(47.071875 414.2375)scale(0.1 -0.1)">
       <use xlink:href="#BitstreamVeraSans-Roman-31"/>
       <use x="63.623046875" xlink:href="#BitstreamVeraSans-Roman-32"/>
      </g>
     </g>
    </g>
    <g id="xtick_2">
     <g id="line2d_4">
      <path clip-path="url(#pa271563a9e)" d="
M95.7844 402.639
L95.7844 12.0391" style="fill:none;stroke:#000000;stroke-dasharray:1.000000,3.000000;stroke-dashoffset:0.0;stroke-width:0.5;"/>
     </g>
     <g id="line2d_5">
      <g>
       <use style="stroke:#000000;stroke-width:0.5;" x="95.784375" xlink:href="#m93b0483c22" y="402.6390625"/>
      </g>
     </g>
     <g id="line2d_6">
      <g>
       <use style="stroke:#000000;stroke-width:0.5;" x="95.784375" xlink:href="#m741efc42ff" y="12.0390625"/>
      </g>
     </g>
     <g id="text_2">
      <!-- 14 -->
      <defs>
       <path d="
M37.7969 64.3125
L12.8906 25.3906
L37.7969 25.3906
z

M35.2031 72.9062
L47.6094 72.9062
L47.6094 25.3906
L58.0156 25.3906
L58.0156 17.1875
L47.6094 17.1875
L47.6094 0
L37.7969 0
L37.7969 17.1875
L4.89062 17.1875
L4.89062 26.7031
z
" id="BitstreamVeraSans-Roman-34"/>
      </defs>
      <g transform="translate(90.2515625 414.2375)scale(0.1 -0.1)">
       <use xlink:href="#BitstreamVeraSans-Roman-31"/>
       <use x="63.623046875" xlink:href="#BitstreamVeraSans-Roman-34"/>
      </g>
     </g>
    </g>
    <g id="xtick_3">
     <g id="line2d_7">
      <path clip-path="url(#pa271563a9e)" d="
M139.184 402.639
L139.184 12.0391" style="fill:none;stroke:#000000;stroke-dasharray:1.000000,3.000000;stroke-dashoffset:0.0;stroke-width:0.5;"/>
     </g>
     <g id="line2d_8">
      <g>
       <use style="stroke:#000000;stroke-width:0.5;" x="139.184375" xlink:href="#m93b0483c22" y="402.6390625"/>
      </g>
     </g>
     <g id="line2d_9">
      <g>
       <use style="stroke:#000000;stroke-width:0.5;" x="139.184375" xlink:href="#m741efc42ff" y="12.0390625"/>
      </g>
     </g>
     <g id="text_3">
      <!-- 16 -->
      <defs>
       <path d="
M33.0156 40.375
Q26.375 40.375 22.4844 35.8281
Q18.6094 31.2969 18.6094 23.3906
Q18.6094 15.5312 22.4844 10.9531
Q26.375 6.39062 33.0156 6.39062
Q39.6562 6.39062 43.5312 10.9531
Q47.4062 15.5312 47.4062 23.3906
Q47.4062 31.2969 43.5312 35.8281
Q39.6562 40.375 33.0156 40.375
M52.5938 71.2969
L52.5938 62.3125
Q48.875 64.0625 45.0938 64.9844
Q41.3125 65.9219 37.5938 65.9219
Q27.8281 65.9219 22.6719 59.3281
Q17.5312 52.7344 16.7969 39.4062
Q19.6719 43.6562 24.0156 45.9219
Q28.375 48.1875 33.5938 48.1875
Q44.5781 48.1875 50.9531 41.5156
Q57.3281 34.8594 57.3281 23.3906
Q57.3281 12.1562 50.6875 5.35938
Q44.0469 -1.42188 33.0156 -1.42188
Q20.3594 -1.42188 13.6719 8.26562
Q6.98438 17.9688 6.98438 36.375
Q6.98438 53.6562 15.1875 63.9375
Q23.3906 74.2188 37.2031 74.2188
Q40.9219 74.2188 44.7031 73.4844
Q48.4844 72.75 52.5938 71.2969" id="BitstreamVeraSans-Roman-36"/>
      </defs>
      <g transform="translate(133.6859375 414.2375)scale(0.1 -0.1)">
       <use xlink:href="#BitstreamVeraSans-Roman-31"/>
       <use x="63.623046875" xlink:href="#BitstreamVeraSans-Roman-36"/>
      </g>
     </g>
    </g>
    <g id="xtick_4">
     <g id="line2d_10">
      <path clip-path="url(#pa271563a9e)" d="
M182.584 402.639
L182.584 12.0391" style="fill:none;stroke:#000000;stroke-dasharray:1.000000,3.000000;stroke-dashoffset:0.0;stroke-width:0.5;"/>
     </g>
     <g id="line2d_11">
      <g>
       <use style="stroke:#000000;stroke-width:0.5;" x="182.584375" xlink:href="#m93b0483c22" y="402.6390625"/>
      </g>
     </g>
     <g id="line2d_12">
      <g>
       <use style="stroke:#000000;stroke-width:0.5;" x="182.584375" xlink:href="#m741efc42ff" y="12.0390625"/>
      </g>
     </g>
     <g id="text_4">
      <!-- 18 -->
      <defs>
       <path d="
M31.7812 34.625
Q24.75 34.625 20.7188 30.8594
Q16.7031 27.0938 16.7031 20.5156
Q16.7031 13.9219 20.7188 10.1562
Q24.75 6.39062 31.7812 6.39062
Q38.8125 6.39062 42.8594 10.1719
Q46.9219 13.9688 46.9219 20.5156
Q46.9219 27.0938 42.8906 30.8594
Q38.875 34.625 31.7812 34.625
M21.9219 38.8125
Q15.5781 40.375 12.0312 44.7188
Q8.5 49.0781 8.5 55.3281
Q8.5 64.0625 14.7188 69.1406
Q20.9531 74.2188 31.7812 74.2188
Q42.6719 74.2188 48.875 69.1406
Q55.0781 64.0625 55.0781 55.3281
Q55.0781 49.0781 51.5312 44.7188
Q48 40.375 41.7031 38.8125
Q48.8281 37.1562 52.7969 32.3125
Q56.7812 27.4844 56.7812 20.5156
Q56.7812 9.90625 50.3125 4.23438
Q43.8438 -1.42188 31.7812 -1.42188
Q19.7344 -1.42188 13.25 4.23438
Q6.78125 9.90625 6.78125 20.5156
Q6.78125 27.4844 10.7812 32.3125
Q14.7969 37.1562 21.9219 38.8125
M18.3125 54.3906
Q18.3125 48.7344 21.8438 45.5625
Q25.3906 42.3906 31.7812 42.3906
Q38.1406 42.3906 41.7188 45.5625
Q45.3125 48.7344 45.3125 54.3906
Q45.3125 60.0625 41.7188 63.2344
Q38.1406 66.4062 31.7812 66.4062
Q25.3906 66.4062 21.8438 63.2344
Q18.3125 60.0625 18.3125 54.3906" id="BitstreamVeraSans-Roman-38"/>
      </defs>
      <g transform="translate(177.11328125 414.2375)scale(0.1 -0.1)">
       <use xlink:href="#BitstreamVeraSans-Roman-31"/>
       <use x="63.623046875" xlink:href="#BitstreamVeraSans-Roman-38"/>
      </g>
     </g>
    </g>
    <g id="xtick_5">
     <g id="line2d_13">
      <path clip-path="url(#pa271563a9e)" d="
M225.984 402.639
L225.984 12.0391" style="fill:none;stroke:#000000;stroke-dasharray:1.000000,3.000000;stroke-dashoffset:0.0;stroke-width:0.5;"/>
     </g>
     <g id="line2d_14">
      <g>
       <use style="stroke:#000000;stroke-width:0.5;" x="225.984375" xlink:href="#m93b0483c22" y="402.6390625"/>
      </g>
     </g>
     <g id="line2d_15">
      <g>
       <use style="stroke:#000000;stroke-width:0.5;" x="225.984375" xlink:href="#m741efc42ff" y="12.0390625"/>
      </g>
     </g>
     <g id="text_5">
      <!-- 20 -->
      <defs>
       <path d="
M31.7812 66.4062
Q24.1719 66.4062 20.3281 58.9062
Q16.5 51.4219 16.5 36.375
Q16.5 21.3906 20.3281 13.8906
Q24.1719 6.39062 31.7812 6.39062
Q39.4531 6.39062 43.2812 13.8906
Q47.125 21.3906 47.125 36.375
Q47.125 51.4219 43.2812 58.9062
Q39.4531 66.4062 31.7812 66.4062
M31.7812 74.2188
Q44.0469 74.2188 50.5156 64.5156
Q56.9844 54.8281 56.9844 36.375
Q56.9844 17.9688 50.5156 8.26562
Q44.0469 -1.42188 31.7812 -1.42188
Q19.5312 -1.42188 13.0625 8.26562
Q6.59375 17.9688 6.59375 36.375
Q6.59375 54.8281 13.0625 64.5156
Q19.5312 74.2188 31.7812 74.2188" id="BitstreamVeraSans-Roman-30"/>
      </defs>
      <g transform="translate(220.3203125 414.2375)scale(0.1 -0.1)">
       <use xlink:href="#BitstreamVeraSans-Roman-32"/>
       <use x="63.623046875" xlink:href="#BitstreamVeraSans-Roman-30"/>
      </g>
     </g>
    </g>
    <g id="xtick_6">
     <g id="line2d_16">
      <path clip-path="url(#pa271563a9e)" d="
M269.384 402.639
L269.384 12.0391" style="fill:none;stroke:#000000;stroke-dasharray:1.000000,3.000000;stroke-dashoffset:0.0;stroke-width:0.5;"/>
     </g>
     <g id="line2d_17">
      <g>
       <use style="stroke:#000000;stroke-width:0.5;" x="269.384375" xlink:href="#m93b0483c22" y="402.6390625"/>
      </g>
     </g>
     <g id="line2d_18">
      <g>
       <use style="stroke:#000000;stroke-width:0.5;" x="269.384375" xlink:href="#m741efc42ff" y="12.0390625"/>
      </g>
     </g>
     <g id="text_6">
      <!-- 22 -->
      <g transform="translate(263.8890625 414.2375)scale(0.1 -0.1)">
       <use xlink:href="#BitstreamVeraSans-Roman-32"/>
       <use x="63.623046875" xlink:href="#BitstreamVeraSans-Roman-32"/>
      </g>
     </g>
    </g>
    <g id="xtick_7">
     <g id="line2d_19">
      <path clip-path="url(#pa271563a9e)" d="
M312.784 402.639
L312.784 12.0391" style="fill:none;stroke:#000000;stroke-dasharray:1.000000,3.000000;stroke-dashoffset:0.0;stroke-width:0.5;"/>
     </g>
     <g id="line2d_20">
      <g>
       <use style="stroke:#000000;stroke-width:0.5;" x="312.784375" xlink:href="#m93b0483c22" y="402.6390625"/>
      </g>
     </g>
     <g id="line2d_21">
      <g>
       <use style="stroke:#000000;stroke-width:0.5;" x="312.784375" xlink:href="#m741efc42ff" y="12.0390625"/>
      </g>
     </g>
     <g id="text_7">
      <!-- 24 -->
      <g transform="translate(307.06875 414.2375)scale(0.1 -0.1)">
       <use xlink:href="#BitstreamVeraSans-Roman-32"/>
       <use x="63.623046875" xlink:href="#BitstreamVeraSans-Roman-34"/>
      </g>
     </g>
    </g>
   </g>
   <g id="matplotlib.axis_2">
    <g id="ytick_1">
     <g id="line2d_22">
      <path clip-path="url(#pa271563a9e)" d="
M30.6844 402.639
L323.634 402.639" style="fill:none;stroke:#000000;stroke-dasharray:1.000000,3.000000;stroke-dashoffset:0.0;stroke-width:0.5;"/>
     </g>
     <g id="line2d_23">
      <defs>
       <path d="
M0 0
L4 0" id="m728421d6d4" style="stroke:#000000;stroke-width:0.5;"/>
      </defs>
      <g>
       <use style="stroke:#000000;stroke-width:0.5;" x="30.684375" xlink:href="#m728421d6d4" y="402.6390625"/>
      </g>
     </g>
     <g id="line2d_24">
      <defs>
       <path d="
M0 0
L-4 0" id="mcb0005524f" style="stroke:#000000;stroke-width:0.5;"/>
      </defs>
      <g>
       <use style="stroke:#000000;stroke-width:0.5;" x="323.634375" xlink:href="#mcb0005524f" y="402.6390625"/>
      </g>
     </g>
     <g id="text_8">
      <!-- −20 -->
      <defs>
       <path d="
M10.5938 35.5
L73.1875 35.5
L73.1875 27.2031
L10.5938 27.2031
z
" id="BitstreamVeraSans-Roman-2212"/>
      </defs>
      <g transform="translate(7.303125 405.3984375)scale(0.1 -0.1)">
       <use xlink:href="#BitstreamVeraSans-Roman-2212"/>
       <use x="83.7890625" xlink:href="#BitstreamVeraSans-Roman-32"/>
       <use x="147.412109375" xlink:href="#BitstreamVeraSans-Roman-30"/>
      </g>
     </g>
    </g>
    <g id="ytick_2">
     <g id="line2d_25">
      <path clip-path="url(#pa271563a9e)" d="
M30.6844 359.239
L323.634 359.239" style="fill:none;stroke:#000000;stroke-dasharray:1.000000,3.000000;stroke-dashoffset:0.0;stroke-width:0.5;"/>
     </g>
     <g id="line2d_26">
      <g>
       <use style="stroke:#000000;stroke-width:0.5;" x="30.684375" xlink:href="#m728421d6d4" y="359.2390625"/>
      </g>
     </g>
     <g id="line2d_27">
      <g>
       <use style="stroke:#000000;stroke-width:0.5;" x="323.634375" xlink:href="#mcb0005524f" y="359.2390625"/>
      </g>
     </g>
     <g id="text_9">
      <!-- −18 -->
      <g transform="translate(7.3234375 361.9984375)scale(0.1 -0.1)">
       <use xlink:href="#BitstreamVeraSans-Roman-2212"/>
       <use x="83.7890625" xlink:href="#BitstreamVeraSans-Roman-31"/>
       <use x="147.412109375" xlink:href="#BitstreamVeraSans-Roman-38"/>
      </g>
     </g>
    </g>
    <g id="ytick_3">
     <g id="line2d_28">
      <path clip-path="url(#pa271563a9e)" d="
M30.6844 315.839
L323.634 315.839" style="fill:none;stroke:#000000;stroke-dasharray:1.000000,3.000000;stroke-dashoffset:0.0;stroke-width:0.5;"/>
     </g>
     <g id="line2d_29">
      <g>
       <use style="stroke:#000000;stroke-width:0.5;" x="30.684375" xlink:href="#m728421d6d4" y="315.8390625"/>
      </g>
     </g>
     <g id="line2d_30">
      <g>
       <use style="stroke:#000000;stroke-width:0.5;" x="323.634375" xlink:href="#mcb0005524f" y="315.8390625"/>
      </g>
     </g>
     <g id="text_10">
      <!-- −16 -->
      <g transform="translate(7.26875 318.5984375)scale(0.1 -0.1)">
       <use xlink:href="#BitstreamVeraSans-Roman-2212"/>
       <use x="83.7890625" xlink:href="#BitstreamVeraSans-Roman-31"/>
       <use x="147.412109375" xlink:href="#BitstreamVeraSans-Roman-36"/>
      </g>
     </g>
    </g>
    <g id="ytick_4">
     <g id="line2d_31">
      <path clip-path="url(#pa271563a9e)" d="
M30.6844 272.439
L323.634 272.439" style="fill:none;stroke:#000000;stroke-dasharray:1.000000,3.000000;stroke-dashoffset:0.0;stroke-width:0.5;"/>
     </g>
     <g id="line2d_32">
      <g>
       <use style="stroke:#000000;stroke-width:0.5;" x="30.684375" xlink:href="#m728421d6d4" y="272.4390625"/>
      </g>
     </g>
     <g id="line2d_33">
      <g>
       <use style="stroke:#000000;stroke-width:0.5;" x="323.634375" xlink:href="#mcb0005524f" y="272.4390625"/>
      </g>
     </g>
     <g id="text_11">
      <!-- −14 -->
      <g transform="translate(7.2 275.1984375)scale(0.1 -0.1)">
       <use xlink:href="#BitstreamVeraSans-Roman-2212"/>
       <use x="83.7890625" xlink:href="#BitstreamVeraSans-Roman-31"/>
       <use x="147.412109375" xlink:href="#BitstreamVeraSans-Roman-34"/>
      </g>
     </g>
    </g>
    <g id="ytick_5">
     <g id="line2d_34">
      <path clip-path="url(#pa271563a9e)" d="
M30.6844 229.039
L323.634 229.039" style="fill:none;stroke:#000000;stroke-dasharray:1.000000,3.000000;stroke-dashoffset:0.0;stroke-width:0.5;"/>
     </g>
     <g id="line2d_35">
      <g>
       <use style="stroke:#000000;stroke-width:0.5;" x="30.684375" xlink:href="#m728421d6d4" y="229.0390625"/>
      </g>
     </g>
     <g id="line2d_36">
      <g>
       <use style="stroke:#000000;stroke-width:0.5;" x="323.634375" xlink:href="#mcb0005524f" y="229.0390625"/>
      </g>
     </g>
     <g id="text_12">
      <!-- −12 -->
      <g transform="translate(7.640625 231.7984375)scale(0.1 -0.1)">
       <use xlink:href="#BitstreamVeraSans-Roman-2212"/>
       <use x="83.7890625" xlink:href="#BitstreamVeraSans-Roman-31"/>
       <use x="147.412109375" xlink:href="#BitstreamVeraSans-Roman-32"/>
      </g>
     </g>
    </g>
    <g id="ytick_6">
     <g id="line2d_37">
      <path clip-path="url(#pa271563a9e)" d="
M30.6844 185.639
L323.634 185.639" style="fill:none;stroke:#000000;stroke-dasharray:1.000000,3.000000;stroke-dashoffset:0.0;stroke-width:0.5;"/>
     </g>
     <g id="line2d_38">
      <g>
       <use style="stroke:#000000;stroke-width:0.5;" x="30.684375" xlink:href="#m728421d6d4" y="185.6390625"/>
      </g>
     </g>
     <g id="line2d_39">
      <g>
       <use style="stroke:#000000;stroke-width:0.5;" x="323.634375" xlink:href="#mcb0005524f" y="185.6390625"/>
      </g>
     </g>
     <g id="text_13">
      <!-- −10 -->
      <g transform="translate(7.303125 188.3984375)scale(0.1 -0.1)">
       <use xlink:href="#BitstreamVeraSans-Roman-2212"/>
       <use x="83.7890625" xlink:href="#BitstreamVeraSans-Roman-31"/>
       <use x="147.412109375" xlink:href="#BitstreamVeraSans-Roman-30"/>
      </g>
     </g>
    </g>
    <g id="ytick_7">
     <g id="line2d_40">
      <path clip-path="url(#pa271563a9e)" d="
M30.6844 142.239
L323.634 142.239" style="fill:none;stroke:#000000;stroke-dasharray:1.000000,3.000000;stroke-dashoffset:0.0;stroke-width:0.5;"/>
     </g>
     <g id="line2d_41">
      <g>
       <use style="stroke:#000000;stroke-width:0.5;" x="30.684375" xlink:href="#m728421d6d4" y="142.2390625"/>
      </g>
     </g>
     <g id="line2d_42">
      <g>
       <use style="stroke:#000000;stroke-width:0.5;" x="323.634375" xlink:href="#mcb0005524f" y="142.2390625"/>
      </g>
     </g>
     <g id="text_14">
      <!-- −8 -->
      <g transform="translate(13.6859375 144.9984375)scale(0.1 -0.1)">
       <use xlink:href="#BitstreamVeraSans-Roman-2212"/>
       <use x="83.7890625" xlink:href="#BitstreamVeraSans-Roman-38"/>
      </g>
     </g>
    </g>
    <g id="ytick_8">
     <g id="line2d_43">
      <path clip-path="url(#pa271563a9e)" d="
M30.6844 98.8391
L323.634 98.8391" style="fill:none;stroke:#000000;stroke-dasharray:1.000000,3.000000;stroke-dashoffset:0.0;stroke-width:0.5;"/>
     </g>
     <g id="line2d_44">
      <g>
       <use style="stroke:#000000;stroke-width:0.5;" x="30.684375" xlink:href="#m728421d6d4" y="98.8390625"/>
      </g>
     </g>
     <g id="line2d_45">
      <g>
       <use style="stroke:#000000;stroke-width:0.5;" x="323.634375" xlink:href="#mcb0005524f" y="98.8390625"/>
      </g>
     </g>
     <g id="text_15">
      <!-- −6 -->
      <g transform="translate(13.63125 101.5984375)scale(0.1 -0.1)">
       <use xlink:href="#BitstreamVeraSans-Roman-2212"/>
       <use x="83.7890625" xlink:href="#BitstreamVeraSans-Roman-36"/>
      </g>
     </g>
    </g>
    <g id="ytick_9">
     <g id="line2d_46">
      <path clip-path="url(#pa271563a9e)" d="
M30.6844 55.4391
L323.634 55.4391" style="fill:none;stroke:#000000;stroke-dasharray:1.000000,3.000000;stroke-dashoffset:0.0;stroke-width:0.5;"/>
     </g>
     <g id="line2d_47">
      <g>
       <use style="stroke:#000000;stroke-width:0.5;" x="30.684375" xlink:href="#m728421d6d4" y="55.4390625"/>
      </g>
     </g>
     <g id="line2d_48">
      <g>
       <use style="stroke:#000000;stroke-width:0.5;" x="323.634375" xlink:href="#mcb0005524f" y="55.4390625"/>
      </g>
     </g>
     <g id="text_16">
      <!-- −4 -->
      <g transform="translate(13.5625 58.1984375)scale(0.1 -0.1)">
       <use xlink:href="#BitstreamVeraSans-Roman-2212"/>
       <use x="83.7890625" xlink:href="#BitstreamVeraSans-Roman-34"/>
      </g>
     </g>
    </g>
    <g id="ytick_10">
     <g id="line2d_49">
      <path clip-path="url(#pa271563a9e)" d="
M30.6844 12.0391
L323.634 12.0391" style="fill:none;stroke:#000000;stroke-dasharray:1.000000,3.000000;stroke-dashoffset:0.0;stroke-width:0.5;"/>
     </g>
     <g id="line2d_50">
      <g>
       <use style="stroke:#000000;stroke-width:0.5;" x="30.684375" xlink:href="#m728421d6d4" y="12.0390625"/>
      </g>
     </g>
     <g id="line2d_51">
      <g>
       <use style="stroke:#000000;stroke-width:0.5;" x="323.634375" xlink:href="#mcb0005524f" y="12.0390625"/>
      </g>
     </g>
     <g id="text_17">
      <!-- −2 -->
      <g transform="translate(14.003125 14.7984375)scale(0.1 -0.1)">
       <use xlink:href="#BitstreamVeraSans-Roman-2212"/>
       <use x="83.7890625" xlink:href="#BitstreamVeraSans-Roman-32"/>
      </g>
     </g>
    </g>
   </g>
   <g id="patch_5">
    <path d="
M30.6844 12.0391
L323.634 12.0391" style="fill:none;stroke:#bcbcbc;"/>
   </g>
   <g id="patch_6">
    <path d="
M323.634 402.639
L323.634 12.0391" style="fill:none;stroke:#bcbcbc;"/>
   </g>
   <g id="patch_7">
    <path d="
M30.6844 402.639
L323.634 402.639" style="fill:none;stroke:#bcbcbc;"/>
   </g>
   <g id="patch_8">
    <path d="
M30.6844 402.639
L30.6844 12.0391" style="fill:none;stroke:#bcbcbc;"/>
   </g>
  </g>
 </g>
 <defs>
  <clipPath id="pa271563a9e">
   <rect height="390.6" width="292.95" x="30.684375" y="12.0390625"/>
  </clipPath>
 </defs>
</svg>
